<?xml version="1.0" encoding="UTF-8"?>
<!DOCTYPE svg PUBLIC "-//W3C//DTD SVG 1.1//EN" "http://www.w3.org/Graphics/SVG/1.1/DTD/svg11.dtd">
<!-- Creator: CorelDRAW X7 -->
<svg xmlns="http://www.w3.org/2000/svg" xml:space="preserve" width="12.1918mm" height="12.1918mm" version="1.1" style="shape-rendering:geometricPrecision; text-rendering:geometricPrecision; image-rendering:optimizeQuality; fill-rule:evenodd; clip-rule:evenodd"
viewBox="0 0 1219 1219"
 xmlns:xlink="http://www.w3.org/1999/xlink">
 <defs>
  <style type="text/css">
   <![CDATA[
    .fil0 {fill:#3C8DBC}
   ]]>
  </style>
 </defs>
 <g id="Layer_x0020_1">
  <metadata id="CorelCorpID_0Corel-Layer"/>
  <path class="fil0" d="M610 0c336,0 609,273 609,610 0,336 -273,609 -609,609 -19,0 -36,-1 -54,-2l0 -115 0 -53 0 -152 0 -8 0 -95c-80,-24 -138,-97 -138,-184 0,-106 86,-192 192,-192 105,0 191,86 191,192 0,87 -58,160 -138,184l0 103 0 152 0 53c249,-27 442,-237 442,-492 0,-274 -222,-496 -495,-496 -274,0 -496,222 -496,496 0,217 140,401 334,468l0 120c-258,-71 -448,-308 -448,-588 0,-337 273,-610 610,-610zm185 687l0 0c3,-6 9,-9 15,-6l55 23c6,2 8,8 6,14l0 0c-2,5 -9,8 -14,6l-56 -23c-5,-3 -8,-9 -6,-14zm-447 -186l0 0c3,-5 9,-8 14,-5l56 22c5,3 8,9 6,15l0 0c-2,5 -9,8 -14,5l-56 -22c-5,-3 -8,-9 -6,-15zm76 186l0 0c2,5 -1,11 -6,14l-56 23c-5,2 -11,-1 -14,-6l0 0c-2,-6 1,-12 6,-14l56 -23c5,-3 12,0 14,6zm447 -186l0 0c2,6 0,12 -6,15l-55 22c-6,3 -12,0 -15,-5l0 0c-2,-6 1,-12 6,-15l56 -22c5,-3 12,0 14,5zm-119 251l0 0c4,-4 11,-4 15,0l43 42c4,4 4,11 0,16l0 0c-5,4 -12,4 -16,0l-42 -43c-4,-4 -4,-11 0,-15zm-342 -342l0 0c4,-5 11,-5 15,0l42 42c5,4 5,11 0,15l0 0c-4,5 -11,5 -15,0l-42 -42c-5,-4 -5,-11 0,-15zm57 342l0 0c5,4 5,11 0,15l-42 43c-4,4 -11,4 -15,0l0 0c-5,-5 -5,-12 0,-16l42 -42c4,-4 11,-4 15,0zm343 -342l0 0c4,4 4,11 0,15l-43 42c-4,5 -11,5 -15,0l0 0c-4,-4 -4,-11 0,-15l42 -42c4,-5 11,-5 16,0zm-309 -62l0 0c6,-2 12,1 15,6l22 56c3,5 0,12 -5,14l0 0c-6,2 -12,-1 -15,-6l-22 -56c-3,-5 0,-11 5,-14zm217 0l0 0c5,3 8,9 6,14l-23 56c-3,5 -9,8 -14,6l0 0c-6,-2 -9,-9 -6,-14l23 -56c2,-5 8,-8 14,-6zm-391 262l0 0c0,-6 5,-11 11,-11l60 0c6,0 10,5 10,11l0 0c0,6 -4,10 -10,10l-60 0c-6,0 -11,-4 -11,-10zm283 -283l0 0c6,0 10,5 10,11l0 60c0,6 -4,10 -10,10l0 0c-6,0 -11,-4 -11,-10l0 -60c0,-6 5,-11 11,-11zm201 283l0 0c0,-6 5,-11 11,-11l60 0c6,0 10,5 10,11l0 0c0,6 -4,10 -10,10l-60 0c-6,0 -11,-4 -11,-10zm-201 -95c-53,0 -95,42 -95,95 0,52 42,94 95,94 52,0 94,-42 94,-94 0,-53 -42,-95 -94,-95zm0 -302c219,0 396,178 396,397 0,146 -79,273 -196,342l0 -129c57,-54 92,-129 92,-213 0,-162 -131,-293 -292,-293 -162,0 -293,131 -293,293 0,84 35,159 92,213l0 129c-117,-69 -196,-196 -196,-342 0,-219 178,-397 397,-397z"/>
 </g>
</svg>
