<?xml version="1.0" encoding="UTF-8"?>
<!DOCTYPE svg PUBLIC "-//W3C//DTD SVG 1.1//EN" "http://www.w3.org/Graphics/SVG/1.1/DTD/svg11.dtd">
<!-- Creator: CorelDRAW X7 -->
<svg xmlns="http://www.w3.org/2000/svg" xml:space="preserve" width="86.6986mm" height="18.1186mm" version="1.1" style="shape-rendering:geometricPrecision; text-rendering:geometricPrecision; image-rendering:optimizeQuality; fill-rule:evenodd; clip-rule:evenodd"
viewBox="0 0 8670 1812"
 xmlns:xlink="http://www.w3.org/1999/xlink">
 <defs>
  <style type="text/css">
   <![CDATA[
    .fil0 {fill:#332C2B}
    .fil1 {fill:#332C2B;fill-rule:nonzero}
   ]]>
  </style>
 </defs>
 <g id="Layer_x0020_1">
  <metadata id="CorelCorpID_0Corel-Layer"/>
  <g id="_1146868544">
   <path class="fil0" d="M908 -1c501,0 907,406 907,907 0,501 -406,907 -907,907 -27,0 -54,-1 -80,-3l0 -171 0 -80 0 -225 0 -12 0 -142c-119,-35 -205,-144 -205,-274 0,-158 127,-285 285,-285 157,0 285,127 285,285 0,130 -87,239 -205,274l0 154 0 225 0 80c369,-40 657,-353 657,-733 0,-407 -330,-737 -737,-737 -407,0 -737,330 -737,737 0,323 207,598 497,697l0 178c-385,-105 -667,-457 -667,-875 0,-501 406,-907 907,-907zm276 1021l0 0c4,-8 13,-12 21,-8l83 34c8,3 12,13 9,21l0 0c-4,8 -13,12 -21,9l-83 -34c-8,-4 -12,-13 -9,-22zm-665 -275l0 0c3,-8 13,-12 21,-9l83 34c8,4 12,13 8,21l0 0c-3,9 -13,13 -21,9l-82 -34c-8,-3 -12,-13 -9,-21zm112 275l0 0c4,9 0,18 -8,22l-83 34c-8,3 -18,-1 -21,-9l0 0c-3,-8 1,-18 9,-21l82 -34c8,-4 18,0 21,8zm666 -275l0 0c3,8 -1,18 -9,21l-83 34c-8,4 -17,0 -21,-9l0 0c-3,-8 1,-17 9,-21l83 -34c8,-3 17,1 21,9zm-177 373l0 0c6,-7 16,-7 22,0l63 63c7,6 7,16 0,23l0 0c-6,6 -16,6 -22,0l-63 -64c-7,-6 -7,-16 0,-22zm-510 -510l0 0c7,-6 17,-6 23,0l63 64c6,6 6,16 0,22l0 0c-6,7 -16,7 -23,0l-63 -63c-6,-6 -6,-16 0,-23zm86 510l0 0c6,6 6,16 0,22l-63 64c-6,6 -16,6 -23,0l0 0c-6,-7 -6,-17 0,-23l63 -63c7,-7 17,-7 23,0zm509 -510l0 0c7,7 7,17 0,23l-63 63c-6,7 -16,7 -22,0l0 0c-7,-6 -7,-16 0,-22l63 -64c6,-6 16,-6 22,0zm-458 -91l0 0c8,-3 17,1 21,9l34 82c3,9 0,18 -9,21l0 0c-8,4 -17,0 -21,-8l-34 -83c-3,-8 1,-18 9,-21zm322 0l0 0c8,3 12,13 9,21l-35 83c-3,8 -12,12 -21,8l0 0c-8,-3 -12,-12 -8,-21l34 -82c3,-8 13,-12 21,-9zm-582 389l0 0c0,-9 7,-16 16,-16l89 0c9,0 17,7 17,16l0 0c0,9 -8,16 -17,16l-89 0c-9,0 -16,-7 -16,-16zm421 -421l0 0c9,0 16,7 16,16l0 90c0,8 -7,16 -16,16l0 0c-9,0 -16,-8 -16,-16l0 -90c0,-9 7,-16 16,-16zm299 421l0 0c0,-9 7,-16 16,-16l90 0c9,0 16,7 16,16l0 0c0,9 -7,16 -16,16l-90 0c-9,0 -16,-7 -16,-16zm-299 -141c-78,0 -141,63 -141,141 0,78 63,140 141,140 77,0 140,-62 140,-140 0,-78 -63,-141 -140,-141zm0 -449c326,0 590,264 590,590 0,217 -117,407 -292,509l0 -192c85,-80 137,-192 137,-317 0,-240 -195,-435 -435,-435 -241,0 -435,195 -435,435 0,125 52,237 136,317l0 192c-174,-102 -291,-292 -291,-509 0,-326 264,-590 590,-590z"/>
   <path class="fil1" d="M8659 713l-85 85c-34,-34 -65,-51 -93,-51 -16,0 -28,3 -36,10 -9,6 -13,14 -13,24 0,7 2,14 8,20 5,6 19,14 41,25l50 25c53,26 89,53 109,80 19,27 29,58 29,95 0,48 -18,88 -53,121 -36,32 -84,48 -144,48 -79,0 -143,-31 -190,-93l84 -92c16,19 35,34 57,45 21,12 41,18 57,18 18,0 33,-5 44,-13 11,-9 17,-19 17,-30 0,-21 -20,-42 -60,-62l-46 -23c-89,-44 -133,-100 -133,-167 0,-43 17,-79 50,-110 33,-30 76,-46 127,-46 36,0 69,8 101,24 31,15 57,38 79,67z"/>
   <polygon class="fil1" points="8064,636 8201,636 8201,1182 8064,1182 "/>
   <path class="fil1" d="M8133 411c24,0 44,9 61,27 18,17 26,38 26,62 0,25 -8,46 -25,63 -17,17 -38,25 -62,25 -24,0 -45,-8 -62,-26 -17,-17 -26,-39 -26,-64 0,-24 9,-44 26,-61 17,-17 37,-26 62,-26z"/>
   <polygon class="fil1" points="7427,636 7567,636 7705,958 7843,636 7982,636 7747,1182 7660,1182 "/>
   <path class="fil1" d="M7086 751c-43,0 -78,15 -107,44 -28,30 -42,67 -42,114 0,47 14,85 42,115 28,29 63,44 106,44 43,0 79,-15 107,-45 29,-30 43,-68 43,-114 0,-47 -14,-85 -42,-114 -28,-30 -64,-44 -107,-44zm-2 -129c51,0 100,13 145,39 46,26 81,60 107,104 25,45 38,92 38,143 0,52 -13,100 -39,144 -25,45 -60,80 -104,105 -45,25 -94,38 -147,38 -78,0 -145,-28 -201,-83 -55,-56 -83,-123 -83,-203 0,-85 31,-156 94,-213 55,-49 118,-74 190,-74z"/>
   <path class="fil1" d="M6217 636l137 0 0 56c31,-26 59,-44 84,-54 25,-11 51,-16 78,-16 54,0 100,19 138,57 31,32 47,80 47,142l0 361 -135 0 0 -239c0,-65 -3,-108 -9,-130 -6,-21 -16,-37 -31,-48 -14,-12 -32,-17 -53,-17 -28,0 -52,9 -72,28 -20,18 -33,44 -41,76 -4,17 -6,54 -6,111l0 219 -137 0 0 -546z"/>
   <polygon class="fil1" points="5637,434 5774,434 5774,636 5855,636 5855,754 5774,754 5774,1182 5637,1182 5637,754 5567,754 5567,636 5637,636 "/>
   <path class="fil1" d="M5480 747l-114 62c-21,-22 -42,-37 -63,-46 -21,-9 -46,-13 -74,-13 -51,0 -93,15 -124,45 -32,31 -48,70 -48,117 0,47 16,84 46,114 30,29 70,44 120,44 61,0 109,-21 143,-63l108 74c-59,76 -141,114 -248,114 -96,0 -172,-28 -226,-85 -54,-57 -81,-123 -81,-199 0,-53 13,-102 39,-146 27,-44 64,-79 111,-105 47,-25 100,-38 159,-38 54,0 103,11 146,33 43,21 79,52 106,92z"/>
   <path class="fil1" d="M4686 840c-9,-30 -27,-54 -54,-73 -26,-18 -57,-27 -93,-27 -38,0 -71,10 -100,31 -18,13 -35,36 -50,69l297 0zm136 107l-440 0c7,39 24,70 51,93 28,23 63,35 105,35 51,0 95,-18 132,-54l114 54c-28,41 -63,71 -103,91 -40,19 -87,29 -142,29 -85,0 -155,-27 -209,-81 -53,-54 -80,-121 -80,-202 0,-83 27,-152 80,-207 54,-55 121,-83 202,-83 86,0 156,28 210,82 54,55 81,127 81,217l-1 26z"/>
   <path class="fil1" d="M4004 636l137 0 0 563c0,52 -5,91 -15,116 -11,26 -27,45 -49,59 -22,14 -49,21 -80,21 -27,0 -61,-7 -102,-21l0 -108c22,10 40,15 57,15 17,0 30,-5 39,-15 9,-10 13,-29 13,-57l0 -573z"/>
   <path class="fil1" d="M4072 411c25,0 45,9 63,26 17,18 25,39 25,63 0,24 -8,45 -25,62 -17,18 -37,26 -61,26 -25,0 -45,-8 -63,-26 -17,-18 -25,-39 -25,-64 0,-24 8,-44 25,-61 17,-17 37,-26 61,-26z"/>
   <path class="fil1" d="M3609 751c-43,0 -78,15 -107,44 -28,30 -42,67 -42,114 0,47 14,85 42,115 28,29 63,44 106,44 43,0 79,-15 107,-45 29,-30 43,-68 43,-114 0,-47 -14,-85 -42,-114 -28,-30 -64,-44 -107,-44zm-2 -129c51,0 100,13 145,39 46,26 81,60 107,104 25,45 38,92 38,143 0,52 -13,100 -38,144 -26,45 -61,80 -105,105 -45,25 -93,38 -147,38 -78,0 -145,-28 -201,-83 -55,-56 -83,-123 -83,-203 0,-85 32,-156 94,-213 55,-49 118,-74 190,-74z"/>
   <path class="fil1" d="M3011 636l119 0 0 69c12,-27 29,-48 50,-62 21,-14 44,-21 69,-21 18,0 36,5 56,14l-43 119c-16,-8 -29,-12 -39,-12 -21,0 -39,13 -54,39 -14,26 -21,77 -21,153l0 26 0 221 -137 0 0 -546z"/>
   <path class="fil1" d="M2622 748c-43,0 -78,15 -107,44 -28,29 -42,68 -42,115 0,49 14,88 42,118 29,30 64,45 107,45 42,0 77,-16 106,-46 29,-30 43,-69 43,-116 0,-47 -14,-86 -42,-115 -28,-30 -64,-45 -107,-45zm-143 -112l0 60c25,-25 51,-43 80,-55 29,-13 60,-19 92,-19 72,0 132,27 182,81 50,54 75,123 75,207 0,81 -26,149 -78,203 -51,55 -112,82 -183,82 -31,0 -60,-6 -87,-17 -27,-11 -54,-29 -81,-55l0 258 -137 0 0 -745 137 0z"/>
  </g>
 </g>
</svg>
