<?xml version="1.0" encoding="UTF-8"?>
<!DOCTYPE svg PUBLIC "-//W3C//DTD SVG 1.1//EN" "http://www.w3.org/Graphics/SVG/1.1/DTD/svg11.dtd">
<!-- Creator: CorelDRAW X7 -->
<svg xmlns="http://www.w3.org/2000/svg" xml:space="preserve" width="86.6986mm" height="19.3886mm" version="1.1" style="shape-rendering:geometricPrecision; text-rendering:geometricPrecision; image-rendering:optimizeQuality; fill-rule:evenodd; clip-rule:evenodd"
viewBox="0 0 8670 1939"
 xmlns:xlink="http://www.w3.org/1999/xlink">
 <defs>
  <style type="text/css">
   <![CDATA[
    .fil1 {fill:#FEFEFE}
    .fil2 {fill:#FEFEFE;fill-rule:nonzero}
    .fil0 {fill:url(#id0)}
   ]]>
  </style>
  <linearGradient id="id0" gradientUnits="userSpaceOnUse" x1="8670.8" y1="969.43" x2="-0.94" y2="969.43">
   <stop offset="0" style="stop-opacity:1; stop-color:#0086C5"/>
   <stop offset="1" style="stop-opacity:1; stop-color:#73BC6C"/>
  </linearGradient>
 </defs>
 <g id="Layer_x0020_1">
  <metadata id="CorelCorpID_0Corel-Layer"/>
  <rect class="fil0" x="-1" y="-1" width="8672" height="1940"/>
  <g id="_1146840896">
   <path class="fil1" d="M1723 278c382,0 691,310 691,691 0,382 -309,692 -691,692 -21,0 -41,-1 -61,-3l0 -130 0 -61 0 -171 0 -9 0 -109c-91,-26 -157,-110 -157,-209 0,-120 98,-217 218,-217 120,0 217,97 217,217 0,99 -66,183 -156,209l0 118 0 171 0 61c281,-30 501,-269 501,-559 0,-310 -252,-562 -562,-562 -311,0 -562,252 -562,562 0,247 158,456 379,532l0 135c-293,-80 -509,-348 -509,-667 0,-381 310,-691 692,-691zm211 779l0 0c2,-6 9,-9 16,-7l63 26c6,3 9,10 6,16l0 0c-2,6 -10,9 -16,7l-63 -26c-6,-3 -9,-10 -6,-16zm-508 -210l0 0c3,-7 10,-10 16,-7l63 26c7,3 10,10 7,16l0 0c-3,6 -10,9 -16,7l-63 -26c-6,-3 -9,-10 -7,-16zm86 210l0 0c3,6 0,13 -7,16l-63 26c-6,2 -13,-1 -16,-7l0 0c-2,-6 1,-13 7,-16l63 -26c6,-2 13,1 16,7zm507 -210l0 0c3,6 0,13 -6,16l-63 26c-7,2 -14,-1 -16,-7l0 0c-3,-6 0,-13 6,-16l63 -26c6,-3 14,0 16,7zm-135 284l0 0c5,-5 13,-5 17,0l49 48c4,5 4,13 0,17l0 0c-5,5 -13,5 -18,0l-48 -48c-5,-5 -5,-12 0,-17zm-388 -388l0 0c5,-5 13,-5 17,0l48 48c5,5 5,12 0,17l0 0c-4,5 -12,5 -17,0l-48 -48c-5,-5 -5,-13 0,-17zm65 388l0 0c5,5 5,12 0,17l-48 48c-4,5 -12,5 -17,0l0 0c-5,-4 -5,-12 0,-17l48 -48c5,-5 13,-5 17,0zm389 -388l0 0c4,4 4,12 0,17l-49 48c-4,5 -12,5 -17,0l0 0c-5,-5 -5,-12 0,-17l48 -48c5,-5 13,-5 18,0zm-350 -70l0 0c6,-3 13,0 16,7l26 63c3,6 0,13 -7,16l0 0c-6,2 -13,-1 -16,-7l-26 -63c-2,-6 1,-13 7,-16zm246 0l0 0c6,3 9,10 6,16l-26 63c-2,6 -10,9 -16,7l0 0c-6,-3 -9,-10 -7,-16l27 -63c2,-7 9,-10 16,-7zm-444 296l0 0c0,-6 6,-12 12,-12l68 0c7,0 13,6 13,12l0 0c0,7 -6,13 -13,13l-68 0c-6,0 -12,-6 -12,-13zm321 -320l0 0c7,0 12,5 12,12l0 68c0,7 -5,12 -12,12l0 0c-7,0 -12,-5 -12,-12l0 -68c0,-7 5,-12 12,-12zm228 320l0 0c0,-6 5,-12 12,-12l68 0c7,0 13,6 13,12l0 0c0,7 -6,13 -13,13l-68 0c-7,0 -12,-6 -12,-13zm-228 -107c-59,0 -107,48 -107,107 0,60 48,108 107,108 59,0 107,-48 107,-108 0,-59 -48,-107 -107,-107zm0 -343c248,0 450,202 450,450 0,166 -90,311 -223,389l0 -147c64,-61 105,-146 105,-242 0,-183 -149,-331 -332,-331 -183,0 -332,148 -332,331 0,96 40,181 104,242l0 147c-133,-78 -222,-223 -222,-389 0,-248 201,-450 450,-450z"/>
   <path class="fil2" d="M7631 822l-65 65c-26,-26 -50,-39 -71,-39 -12,0 -21,3 -28,8 -6,5 -10,11 -10,18 0,6 3,11 7,15 4,5 14,11 31,20l38 19c40,20 68,40 83,60 15,21 23,45 23,73 0,36 -14,67 -41,92 -27,25 -64,37 -110,37 -60,0 -109,-24 -145,-71l64 -70c13,14 27,26 44,34 16,9 31,14 44,14 13,0 25,-4 33,-10 8,-7 13,-15 13,-23 0,-16 -16,-32 -46,-47l-35 -18c-68,-34 -101,-76 -101,-127 0,-33 12,-61 38,-84 25,-23 57,-35 97,-35 27,0 52,6 76,18 24,12 44,29 61,51z"/>
   <polygon class="fil2" points="7177,763 7281,763 7281,1180 7177,1180 "/>
   <path class="fil2" d="M7230 593c18,0 33,6 47,19 13,14 19,30 19,48 0,19 -6,35 -19,48 -13,13 -29,19 -47,19 -18,0 -34,-6 -47,-20 -13,-13 -20,-29 -20,-48 0,-18 7,-34 20,-47 12,-13 28,-19 47,-19z"/>
   <polygon class="fil2" points="6692,763 6799,763 6903,1009 7009,763 7115,763 6936,1180 6869,1180 "/>
   <path class="fil2" d="M6432 851c-33,0 -60,11 -82,34 -21,23 -32,51 -32,86 0,36 11,66 32,88 21,22 48,34 81,34 33,0 60,-12 82,-34 22,-23 32,-52 32,-88 0,-35 -10,-64 -32,-86 -21,-23 -48,-34 -81,-34zm-2 -98c39,0 76,10 111,30 35,19 62,46 81,79 20,34 29,70 29,109 0,39 -10,76 -29,110 -20,34 -46,61 -80,80 -34,19 -71,29 -112,29 -59,0 -110,-21 -153,-64 -42,-42 -63,-94 -63,-154 0,-65 24,-119 72,-162 41,-38 90,-57 144,-57z"/>
   <path class="fil2" d="M5769 763l105 0 0 43c23,-20 45,-33 64,-41 19,-8 39,-12 59,-12 41,0 77,15 105,43 25,25 37,61 37,109l0 275 -104 0 0 -182c0,-50 -2,-83 -6,-99 -5,-16 -13,-29 -24,-37 -11,-9 -25,-13 -41,-13 -21,0 -39,7 -54,21 -15,14 -26,34 -32,59 -3,13 -4,41 -4,84l0 167 -105 0 0 -417z"/>
   <polygon class="fil2" points="5328,610 5432,610 5432,763 5494,763 5494,854 5432,854 5432,1180 5328,1180 5328,854 5274,854 5274,763 5328,763 "/>
   <path class="fil2" d="M5208 848l-87 48c-16,-17 -33,-29 -48,-36 -16,-6 -35,-10 -57,-10 -39,0 -70,12 -94,35 -24,23 -36,53 -36,89 0,36 11,64 34,87 24,22 54,33 92,33 46,0 83,-16 109,-48l82 57c-45,58 -108,87 -189,87 -73,0 -131,-22 -172,-65 -41,-43 -62,-94 -62,-152 0,-40 10,-77 30,-111 20,-34 48,-60 84,-80 37,-19 77,-29 122,-29 41,0 78,8 111,25 33,16 60,40 81,70z"/>
   <path class="fil2" d="M4602 919c-7,-22 -20,-41 -40,-55 -21,-14 -44,-21 -71,-21 -29,0 -55,8 -77,24 -14,10 -26,27 -38,52l226 0zm104 82l-335 0c5,30 18,53 39,71 21,17 47,26 80,26 39,0 72,-14 100,-41l88 41c-22,31 -49,54 -79,70 -31,14 -67,22 -109,22 -65,0 -118,-21 -159,-62 -41,-41 -61,-92 -61,-154 0,-63 20,-116 61,-158 41,-42 92,-63 154,-63 66,0 119,21 160,63 41,42 62,97 62,165l-1 20z"/>
   <path class="fil2" d="M4083 763l104 0 0 430c0,39 -4,69 -12,88 -7,20 -20,35 -37,45 -16,11 -37,16 -60,16 -21,0 -47,-5 -78,-16l0 -82c16,8 30,12 43,12 13,0 23,-4 30,-12 7,-8 10,-23 10,-44l0 -437z"/>
   <path class="fil2" d="M4135 593c18,0 34,6 47,19 13,13 20,29 20,48 0,19 -7,34 -20,48 -12,13 -28,19 -46,19 -19,0 -35,-6 -48,-20 -13,-13 -19,-29 -19,-48 0,-19 6,-34 19,-47 13,-13 28,-19 47,-19z"/>
   <path class="fil2" d="M3782 851c-33,0 -60,11 -82,34 -21,23 -32,51 -32,86 0,36 11,66 32,88 21,22 48,34 81,34 33,0 60,-12 82,-34 21,-23 32,-52 32,-88 0,-35 -10,-64 -32,-86 -21,-23 -48,-34 -81,-34zm-2 -98c39,0 76,10 111,30 35,19 62,46 81,79 19,34 29,70 29,109 0,39 -10,76 -29,110 -20,34 -46,61 -80,80 -34,19 -71,29 -112,29 -59,0 -111,-21 -153,-64 -42,-42 -63,-94 -63,-154 0,-65 24,-119 71,-162 42,-38 90,-57 145,-57z"/>
   <path class="fil2" d="M3326 763l90 0 0 53c10,-20 23,-36 39,-47 16,-10 33,-16 52,-16 14,0 28,4 43,11l-33 90c-12,-6 -22,-9 -30,-9 -16,0 -29,10 -40,30 -11,20 -17,59 -17,117l0 20 0 168 -104 0 0 -417z"/>
   <path class="fil2" d="M3030 849c-33,0 -60,11 -82,33 -22,23 -32,52 -32,88 0,37 10,67 32,90 22,23 49,34 82,34 32,0 58,-11 80,-35 22,-23 33,-52 33,-88 0,-36 -11,-65 -32,-88 -22,-23 -49,-34 -81,-34zm-110 -86l0 46c19,-18 39,-32 61,-42 22,-9 46,-14 71,-14 54,0 100,21 138,62 38,41 57,93 57,157 0,62 -20,114 -59,155 -39,42 -86,63 -139,63 -24,0 -47,-4 -67,-13 -21,-8 -41,-22 -62,-42l0 197 -104 0 0 -569 104 0z"/>
  </g>
 </g>
</svg>
