<?xml version="1.0" encoding="UTF-8"?>
<!DOCTYPE svg PUBLIC "-//W3C//DTD SVG 1.1//EN" "http://www.w3.org/Graphics/SVG/1.1/DTD/svg11.dtd">
<!-- Creator: CorelDRAW X7 -->
<svg xmlns="http://www.w3.org/2000/svg" xml:space="preserve" width="21.6746mm" height="21.6746mm" version="1.1" style="shape-rendering:geometricPrecision; text-rendering:geometricPrecision; image-rendering:optimizeQuality; fill-rule:evenodd; clip-rule:evenodd"
viewBox="0 0 2167 2167"
 xmlns:xlink="http://www.w3.org/1999/xlink">
 <defs>
  <style type="text/css">
   <![CDATA[
    .fil0 {fill:#3C8DBC}
   ]]>
  </style>
 </defs>
 <g id="Layer_x0020_1">
  <metadata id="CorelCorpID_0Corel-Layer"/>
  <path class="fil0" d="M1084 0c598,0 1083,485 1083,1084 0,598 -485,1083 -1083,1083 -32,0 -64,-1 -96,-4l0 -204 0 -95 0 -269 0 -14 0 -170c-142,-41 -245,-172 -245,-327 0,-189 153,-341 341,-341 188,0 341,152 341,341 0,155 -104,286 -246,327l0 184 0 269 0 95c442,-47 786,-421 786,-875 0,-487 -395,-881 -881,-881 -487,0 -881,394 -881,881 0,386 248,714 594,833l0 212c-459,-126 -797,-546 -797,-1045 0,-599 485,-1084 1084,-1084zm330 1221l0 0c4,-10 15,-15 25,-11l99 41c10,4 14,15 10,25l0 0c-4,10 -15,15 -25,11l-99 -41c-9,-4 -14,-16 -10,-25zm-795 -330l0 0c4,-9 16,-14 25,-10l99 41c10,4 14,15 10,25l0 0c-4,10 -15,14 -25,10l-98 -41c-10,-4 -15,-15 -11,-25zm134 330l0 0c4,9 0,21 -10,25l-99 41c-9,4 -21,-1 -25,-11l0 0c-4,-10 1,-21 11,-25l98 -41c10,-4 21,1 25,11zm795 -330l0 0c4,10 0,21 -10,25l-99 41c-10,4 -21,0 -25,-10l0 0c-4,-10 1,-21 10,-25l99 -41c10,-4 21,1 25,10zm-211 446l0 0c7,-8 19,-8 27,0l75 75c8,8 8,20 0,27l0 0c-7,8 -19,8 -27,0l-75 -75c-8,-8 -8,-20 0,-27zm-609 -609l0 0c8,-7 20,-7 27,0l76 76c7,7 7,19 0,27l0 0c-8,7 -20,7 -27,0l-76 -76c-7,-7 -7,-19 0,-27zm103 609l0 0c7,7 7,19 0,27l-76 75c-7,8 -19,8 -27,0l0 0c-7,-7 -7,-19 0,-27l76 -75c7,-8 19,-8 27,0zm608 -609l0 0c8,8 8,20 0,27l-75 76c-8,7 -20,7 -27,0l0 0c-8,-8 -8,-20 0,-27l75 -76c8,-7 20,-7 27,0zm-548 -109l0 0c10,-4 21,1 25,11l41 98c4,10 0,21 -10,25l0 0c-10,4 -21,0 -25,-10l-41 -99c-4,-9 1,-21 10,-25zm385 0l0 0c10,4 15,16 11,25l-41 99c-4,10 -16,14 -25,10l0 0c-10,-4 -15,-15 -11,-25l41 -98c4,-10 15,-15 25,-11zm-695 465l0 0c0,-11 9,-20 19,-20l107 0c11,0 19,9 19,20l0 0c0,10 -8,19 -19,19l-107 0c-10,0 -19,-9 -19,-19zm503 -503l0 0c10,0 19,9 19,19l0 107c0,11 -9,19 -19,19l0 0c-11,0 -20,-8 -20,-19l0 -107c0,-10 9,-19 20,-19zm357 503l0 0c0,-11 9,-20 20,-20l106 0c11,0 20,9 20,20l0 0c0,10 -9,19 -20,19l-106 0c-11,0 -20,-9 -20,-19zm-357 -168c-93,0 -168,75 -168,168 0,92 75,168 168,168 92,0 168,-76 168,-168 0,-93 -76,-168 -168,-168zm0 -537c389,0 705,315 705,705 0,259 -140,486 -349,608l0 -230c101,-95 164,-229 164,-378 0,-287 -233,-520 -520,-520 -287,0 -520,233 -520,520 0,149 63,283 163,378l0 230c-208,-122 -348,-349 -348,-608 0,-390 315,-705 705,-705z"/>
 </g>
</svg>
