<?xml version="1.0" encoding="UTF-8"?>
<!DOCTYPE svg PUBLIC "-//W3C//DTD SVG 1.1//EN" "http://www.w3.org/Graphics/SVG/1.1/DTD/svg11.dtd">
<!-- Creator: CorelDRAW X7 -->
<svg xmlns="http://www.w3.org/2000/svg" xml:space="preserve" width="43.3492mm" height="43.3492mm" version="1.1" style="shape-rendering:geometricPrecision; text-rendering:geometricPrecision; image-rendering:optimizeQuality; fill-rule:evenodd; clip-rule:evenodd"
viewBox="0 0 4335 4335"
 xmlns:xlink="http://www.w3.org/1999/xlink">
 <defs>
  <style type="text/css">
   <![CDATA[
    .fil0 {fill:#3C8DBC}
   ]]>
  </style>
 </defs>
 <g id="Layer_x0020_1">
  <metadata id="CorelCorpID_0Corel-Layer"/>
  <path class="fil0" d="M2167 0c1198,0 2168,970 2168,2167 0,1198 -970,2168 -2168,2168 -64,0 -128,-3 -191,-9l0 -407 0 -190 0 -539 0 -28 0 -340c-283,-83 -490,-344 -490,-655 0,-376 305,-681 682,-681 376,0 681,305 681,681 0,311 -207,572 -490,655l0 368 0 539 0 190c883,-96 1570,-843 1570,-1752 0,-972 -789,-1761 -1762,-1761 -972,0 -1761,789 -1761,1761 0,772 497,1428 1188,1666l0 425c-919,-251 -1594,-1092 -1594,-2091 0,-1197 970,-2167 2167,-2167zm661 2441l0 0c8,-19 31,-29 50,-21l198 82c19,8 29,31 21,50l0 0c-9,20 -31,29 -51,21l-197 -82c-20,-8 -29,-30 -21,-50zm-1590 -658l0 0c9,-20 31,-29 51,-21l197 82c20,8 29,30 21,50l0 0c-8,19 -31,29 -50,21l-198 -82c-19,-8 -29,-31 -21,-50zm269 658l0 0c8,20 -1,42 -21,50l-197 82c-20,8 -42,-1 -51,-21l0 0c-8,-19 2,-42 21,-50l198 -82c19,-8 42,2 50,21zm1590 -658l0 0c8,19 -2,42 -21,50l-198 82c-19,8 -42,-2 -50,-21l0 0c-8,-20 1,-42 21,-50l197 -82c20,-8 42,1 51,21zm-424 890l0 0c15,-15 40,-15 55,0l151 151c15,15 15,40 0,55l0 0c-15,15 -40,14 -55,0l-151 -151c-15,-15 -15,-40 0,-55zm-1217 -1217l0 0c15,-15 40,-15 55,0l151 151c15,15 15,40 0,55l0 0c-15,15 -40,15 -55,0l-151 -151c-15,-15 -15,-40 0,-55zm206 1217l0 0c15,15 15,40 0,55l-151 151c-15,14 -40,15 -55,0l0 0c-15,-15 -15,-40 0,-55l151 -151c15,-15 40,-15 55,0zm1217 -1217l0 0c15,15 15,40 0,55l-151 151c-15,15 -40,15 -55,0l0 0c-15,-15 -15,-40 0,-55l151 -151c15,-15 40,-15 55,0zm-1096 -218l0 0c19,-8 42,2 50,21l82 198c8,19 -2,42 -21,50l0 0c-20,8 -42,-1 -50,-21l-82 -197c-8,-20 1,-42 21,-51zm769 0l0 0c20,9 29,31 21,51l-82 197c-8,20 -30,29 -50,21l0 0c-19,-8 -29,-31 -21,-50l82 -198c8,-19 31,-29 50,-21zm-1390 929l0 0c0,-21 17,-38 38,-38l214 0c21,0 38,17 38,38l0 0c0,22 -17,39 -38,39l-214 0c-21,0 -38,-17 -38,-39zm1005 -1005l0 0c22,0 39,17 39,38l0 214c0,21 -17,38 -39,38l0 0c-21,0 -38,-17 -38,-38l0 -214c0,-21 17,-38 38,-38zm716 1005l0 0c0,-21 17,-38 38,-38l214 0c21,0 38,17 38,38l0 0c0,22 -17,39 -38,39l-214 0c-21,0 -38,-17 -38,-39zm-716 -335c-185,0 -335,150 -335,335 0,186 150,336 335,336 186,0 336,-150 336,-336 0,-185 -150,-335 -336,-335zm0 -1075c779,0 1411,631 1411,1410 0,519 -280,973 -698,1218l0 -460c202,-190 328,-459 328,-758 0,-574 -466,-1040 -1041,-1040 -574,0 -1040,466 -1040,1040 0,299 126,568 327,758l0 460c-417,-245 -697,-699 -697,-1218 0,-779 631,-1410 1410,-1410z"/>
 </g>
</svg>
