<?xml version="1.0" encoding="UTF-8"?>
<!DOCTYPE svg PUBLIC "-//W3C//DTD SVG 1.1//EN" "http://www.w3.org/Graphics/SVG/1.1/DTD/svg11.dtd">
<!-- Creator: CorelDRAW X7 -->
<svg xmlns="http://www.w3.org/2000/svg" xml:space="preserve" width="8.1278mm" height="8.1278mm" version="1.1" style="shape-rendering:geometricPrecision; text-rendering:geometricPrecision; image-rendering:optimizeQuality; fill-rule:evenodd; clip-rule:evenodd"
viewBox="0 0 813 813"
 xmlns:xlink="http://www.w3.org/1999/xlink">
 <defs>
  <style type="text/css">
   <![CDATA[
    .fil0 {fill:#3C8DBC}
   ]]>
  </style>
 </defs>
 <g id="Layer_x0020_1">
  <metadata id="CorelCorpID_0Corel-Layer"/>
  <path class="fil0" d="M406 0c225,0 407,182 407,406 0,225 -182,407 -407,407 -12,0 -24,-1 -35,-2l0 -76 0 -36 0 -101 0 -5 0 -64c-54,-15 -92,-64 -92,-123 0,-70 57,-127 127,-127 71,0 128,57 128,127 0,59 -39,108 -92,123l0 69 0 101 0 36c166,-18 295,-158 295,-329 0,-182 -148,-330 -331,-330 -182,0 -330,148 -330,330 0,145 93,268 223,313l0 79c-172,-47 -299,-204 -299,-392 0,-224 182,-406 406,-406zm124 458l0 0c2,-4 6,-6 10,-4l37 15c3,2 5,6 4,10l0 0c-2,3 -6,5 -10,3l-37 -15c-3,-1 -5,-6 -4,-9zm-298 -124l0 0c2,-3 6,-5 10,-4l37 16c3,1 5,5 4,9l0 0c-2,4 -6,6 -10,4l-37 -15c-4,-2 -5,-6 -4,-10zm51 124l0 0c1,3 -1,8 -4,9l-37 15c-4,2 -8,0 -10,-3l0 0c-1,-4 0,-8 4,-10l37 -15c4,-2 8,0 10,4zm298 -124l0 0c1,4 -1,8 -4,10l-37 15c-4,2 -8,0 -10,-4l0 0c-1,-4 1,-8 4,-9l37 -16c4,-1 8,1 10,4zm-80 167l0 0c3,-3 8,-3 10,0l29 29c3,2 3,7 0,10l0 0c-3,3 -8,3 -10,0l-29 -29c-3,-2 -3,-7 0,-10zm-228 -228l0 0c3,-3 7,-3 10,0l29 28c2,3 2,8 0,11l0 0c-3,2 -8,2 -11,0l-28 -29c-3,-3 -3,-7 0,-10zm39 228l0 0c2,3 2,8 0,10l-29 29c-3,3 -7,3 -10,0l0 0c-3,-3 -3,-8 0,-10l28 -29c3,-3 8,-3 11,0zm228 -228l0 0c3,3 3,7 0,10l-29 29c-2,2 -7,2 -10,0l0 0c-3,-3 -3,-8 0,-11l29 -28c2,-3 7,-3 10,0zm-206 -41l0 0c4,-1 8,0 10,4l15 37c2,4 0,8 -4,10l0 0c-4,1 -8,-1 -9,-4l-16 -37c-1,-4 1,-8 4,-10zm145 0l0 0c3,2 5,6 3,10l-15 37c-1,3 -6,5 -9,4l0 0c-4,-2 -6,-6 -4,-10l15 -37c2,-4 6,-5 10,-4zm-261 174l0 0c0,-4 3,-7 7,-7l40 0c4,0 7,3 7,7l0 0c0,4 -3,8 -7,8l-40 0c-4,0 -7,-4 -7,-8zm188 -188l0 0c4,0 8,3 8,7l0 40c0,4 -4,7 -8,7l0 0c-4,0 -7,-3 -7,-7l0 -40c0,-4 3,-7 7,-7zm134 188l0 0c0,-4 4,-7 8,-7l40 0c4,0 7,3 7,7l0 0c0,4 -3,8 -7,8l-40 0c-4,0 -8,-4 -8,-8zm-134 -63c-34,0 -63,29 -63,63 0,35 29,63 63,63 35,0 63,-28 63,-63 0,-34 -28,-63 -63,-63zm0 -201c146,0 265,118 265,264 0,98 -53,183 -131,229l0 -87c38,-35 61,-86 61,-142 0,-107 -87,-195 -195,-195 -107,0 -195,88 -195,195 0,56 24,107 62,142l0 87c-79,-46 -131,-131 -131,-229 0,-146 118,-264 264,-264z"/>
 </g>
</svg>
