<?xml version="1.0" encoding="UTF-8"?>
<!DOCTYPE svg PUBLIC "-//W3C//DTD SVG 1.1//EN" "http://www.w3.org/Graphics/SVG/1.1/DTD/svg11.dtd">
<!-- Creator: CorelDRAW X7 -->
<svg xmlns="http://www.w3.org/2000/svg" xml:space="preserve" width="43.3492mm" height="9.0592mm" version="1.1" style="shape-rendering:geometricPrecision; text-rendering:geometricPrecision; image-rendering:optimizeQuality; fill-rule:evenodd; clip-rule:evenodd"
viewBox="0 0 4335 906"
 xmlns:xlink="http://www.w3.org/1999/xlink">
 <defs>
  <style type="text/css">
   <![CDATA[
    .fil0 {fill:#3C8DBC}
    .fil1 {fill:#3C8DBC;fill-rule:nonzero}
   ]]>
  </style>
 </defs>
 <g id="Layer_x0020_1">
  <metadata id="CorelCorpID_0Corel-Layer"/>
  <g id="_1094972000">
   <path class="fil0" d="M453 -1c251,0 454,203 454,454 0,251 -203,454 -454,454 -14,0 -27,-1 -40,-2l0 -85 0 -40 0 -113 0 -6 0 -71c-59,-17 -103,-72 -103,-137 0,-79 64,-143 143,-143 79,0 143,64 143,143 0,65 -44,120 -103,137l0 77 0 113 0 40c185,-20 329,-177 329,-367 0,-204 -165,-369 -369,-369 -204,0 -369,165 -369,369 0,162 104,299 249,349l0 89c-193,-53 -334,-229 -334,-438 0,-251 203,-454 454,-454zm138 511l0 0c2,-4 7,-6 11,-4l41 17c4,2 6,6 5,11l0 0c-2,4 -7,6 -11,4l-41 -17c-4,-2 -6,-7 -5,-11zm-333 -138l0 0c2,-4 7,-6 11,-4l41 17c4,2 6,7 5,11l0 0c-2,4 -7,6 -11,4l-41 -17c-4,-2 -6,-7 -5,-11zm57 138l0 0c1,4 -1,9 -5,11l-41 17c-4,2 -9,0 -11,-4l0 0c-1,-5 1,-9 5,-11l41 -17c4,-2 9,0 11,4zm333 -138l0 0c1,4 -1,9 -5,11l-41 17c-4,2 -9,0 -11,-4l0 0c-1,-4 1,-9 5,-11l41 -17c4,-2 9,0 11,4zm-89 187l0 0c3,-3 8,-3 11,0l32 31c3,4 3,9 0,12l0 0c-3,3 -8,3 -12,0l-31 -32c-3,-3 -3,-8 0,-11zm-255 -255l0 0c3,-3 8,-3 11,0l32 32c3,3 3,8 0,11l0 0c-3,3 -8,3 -11,0l-32 -32c-3,-3 -3,-8 0,-11zm43 255l0 0c3,3 3,8 0,11l-32 32c-3,3 -8,3 -11,0l0 0c-3,-3 -3,-8 0,-12l32 -31c3,-3 8,-3 11,0zm255 -255l0 0c3,3 3,8 0,11l-32 32c-3,3 -8,3 -11,0l0 0c-3,-3 -3,-8 0,-11l31 -32c4,-3 9,-3 12,0zm-230 -46l0 0c4,-1 9,1 11,5l17 41c2,4 0,9 -4,11l0 0c-4,1 -9,-1 -11,-5l-17 -41c-2,-4 0,-9 4,-11zm162 0l0 0c4,2 6,7 4,11l-17 41c-2,4 -7,6 -11,5l0 0c-4,-2 -6,-7 -4,-11l17 -41c2,-4 6,-6 11,-5zm-292 195l0 0c0,-4 4,-8 8,-8l45 0c5,0 8,4 8,8l0 0c0,4 -3,8 -8,8l-45 0c-4,0 -8,-4 -8,-8zm211 -211l0 0c4,0 8,4 8,8l0 45c0,5 -4,8 -8,8l0 0c-4,0 -8,-3 -8,-8l0 -45c0,-4 4,-8 8,-8zm150 211l0 0c0,-4 3,-8 8,-8l44 0c5,0 9,4 9,8l0 0c0,4 -4,8 -9,8l-44 0c-5,0 -8,-4 -8,-8zm-150 -70c-39,0 -70,31 -70,70 0,39 31,70 70,70 39,0 70,-31 70,-70 0,-39 -31,-70 -70,-70zm0 -225c163,0 295,132 295,295 0,109 -58,204 -146,255l0 -97c42,-39 69,-96 69,-158 0,-120 -98,-218 -218,-218 -120,0 -218,98 -218,218 0,62 27,119 69,158l0 97c-88,-51 -146,-146 -146,-255 0,-163 132,-295 295,-295z"/>
   <path class="fil1" d="M4331 356l-43 43c-17,-17 -32,-26 -46,-26 -8,0 -14,2 -18,5 -5,3 -7,7 -7,12 0,4 1,7 4,10 3,3 10,8 21,13l25 13c26,13 44,26 54,39 10,14 15,30 15,48 0,24 -9,44 -27,60 -18,17 -42,25 -72,25 -39,0 -71,-16 -95,-47l42 -46c8,9 18,17 29,23 10,5 20,8 28,8 9,0 17,-2 22,-6 6,-4 9,-9 9,-15 0,-11 -10,-21 -30,-31l-23 -11c-45,-23 -67,-50 -67,-84 0,-21 8,-40 25,-55 17,-15 38,-23 64,-23 18,0 34,4 50,12 16,8 29,19 40,33z"/>
   <polygon class="fil1" points="4033,318 4101,318 4101,591 4033,591 "/>
   <path class="fil1" d="M4067 206c12,0 23,4 31,13 9,8 13,19 13,31 0,12 -4,23 -13,31 -8,9 -18,13 -30,13 -12,0 -23,-4 -31,-13 -9,-9 -13,-19 -13,-32 0,-12 4,-22 13,-31 8,-8 18,-12 30,-12z"/>
   <polygon class="fil1" points="3714,318 3785,318 3853,479 3923,318 3992,318 3875,591 3831,591 "/>
   <path class="fil1" d="M3544 375c-22,0 -39,8 -54,22 -14,15 -21,34 -21,57 0,24 7,43 21,58 14,14 32,22 53,22 22,0 40,-8 54,-22 14,-15 21,-34 21,-58 0,-23 -7,-42 -21,-57 -14,-14 -32,-22 -53,-22zm-1 -64c25,0 50,6 72,19 23,13 41,31 54,53 12,22 19,46 19,71 0,26 -7,50 -19,72 -13,23 -31,40 -53,53 -22,12 -46,19 -73,19 -39,0 -73,-14 -101,-42 -27,-28 -41,-62 -41,-101 0,-43 15,-79 47,-107 27,-25 59,-37 95,-37z"/>
   <path class="fil1" d="M3109 318l68 0 0 28c16,-13 30,-22 43,-27 12,-5 25,-8 39,-8 27,0 50,9 69,28 15,16 23,40 23,72l0 180 -68 0 0 -120c0,-32 -1,-54 -4,-64 -3,-11 -8,-19 -15,-25 -7,-5 -16,-8 -27,-8 -14,0 -26,4 -36,14 -10,9 -17,22 -21,38 -1,9 -3,27 -3,56l0 109 -68 0 0 -273z"/>
   <polygon class="fil1" points="2819,217 2887,217 2887,318 2928,318 2928,377 2887,377 2887,591 2819,591 2819,377 2784,377 2784,318 2819,318 "/>
   <path class="fil1" d="M2740 373l-57 32c-10,-12 -21,-19 -31,-24 -11,-4 -23,-6 -37,-6 -26,0 -47,7 -62,23 -16,15 -24,34 -24,58 0,23 8,42 23,57 15,15 35,22 60,22 30,0 54,-11 71,-32l54 38c-29,38 -70,57 -124,57 -48,0 -86,-15 -113,-43 -27,-28 -41,-62 -41,-100 0,-26 7,-50 20,-73 14,-22 32,-39 56,-52 23,-13 50,-19 79,-19 27,0 52,5 73,16 22,11 40,26 53,46z"/>
   <path class="fil1" d="M2343 420c-5,-15 -13,-27 -27,-36 -13,-10 -29,-14 -46,-14 -19,0 -36,5 -51,15 -9,7 -17,19 -25,35l149 0zm68 54l-220 0c3,19 12,35 26,46 13,12 31,17 52,17 26,0 48,-9 66,-27l57 28c-14,20 -31,35 -51,45 -20,10 -44,15 -72,15 -42,0 -77,-14 -104,-41 -27,-27 -40,-61 -40,-101 0,-42 13,-76 40,-104 27,-27 61,-41 101,-41 43,0 78,14 105,41 27,28 40,64 40,109l0 13z"/>
   <path class="fil1" d="M2002 318l68 0 0 282c0,26 -2,45 -7,58 -5,13 -13,22 -25,29 -10,7 -24,10 -39,10 -14,0 -31,-3 -52,-10l0 -54c11,5 21,8 29,8 9,0 15,-3 19,-8 5,-5 7,-15 7,-29l0 -286z"/>
   <path class="fil1" d="M2036 206c12,0 23,4 31,13 9,8 13,19 13,31 0,12 -4,22 -13,31 -8,9 -18,13 -30,13 -12,0 -23,-4 -31,-13 -9,-9 -13,-20 -13,-32 0,-12 4,-22 12,-31 9,-8 19,-12 31,-12z"/>
   <path class="fil1" d="M1804 375c-21,0 -39,8 -53,22 -14,15 -21,34 -21,57 0,24 7,43 21,58 14,14 31,22 53,22 21,0 39,-8 54,-22 14,-15 21,-34 21,-58 0,-23 -7,-42 -21,-57 -14,-14 -32,-22 -54,-22zm-1 -64c26,0 50,6 73,19 23,13 40,31 53,53 13,22 19,46 19,71 0,26 -6,50 -19,72 -13,23 -30,40 -52,53 -23,12 -47,19 -74,19 -39,0 -72,-14 -100,-42 -28,-28 -42,-62 -42,-101 0,-43 16,-79 47,-107 28,-25 59,-37 95,-37z"/>
   <path class="fil1" d="M1505 318l60 0 0 34c6,-13 14,-23 25,-30 10,-7 22,-11 34,-11 9,0 18,2 28,7l-21 59c-8,-4 -15,-6 -20,-6 -10,0 -19,7 -27,20 -7,13 -10,38 -10,76l0 14 0 110 -69 0 0 -273z"/>
   <path class="fil1" d="M1311 374c-22,0 -40,7 -54,22 -14,15 -21,34 -21,58 0,24 7,43 21,58 14,15 32,23 54,23 21,0 38,-8 53,-23 14,-15 21,-35 21,-58 0,-24 -7,-43 -21,-58 -14,-15 -32,-22 -53,-22zm-72 -56l0 30c12,-12 26,-22 40,-28 14,-6 30,-9 46,-9 36,0 66,14 91,40 25,27 37,62 37,104 0,40 -12,74 -38,102 -26,27 -56,41 -92,41 -15,0 -30,-3 -44,-9 -13,-5 -27,-15 -40,-27l0 129 -69 0 0 -373 69 0z"/>
  </g>
 </g>
</svg>
