<?xml version="1.0" encoding="UTF-8"?>
<!DOCTYPE svg PUBLIC "-//W3C//DTD SVG 1.1//EN" "http://www.w3.org/Graphics/SVG/1.1/DTD/svg11.dtd">
<!-- Creator: CorelDRAW X7 -->
<svg xmlns="http://www.w3.org/2000/svg" xml:space="preserve" width="86.6986mm" height="44.3652mm" version="1.1" style="shape-rendering:geometricPrecision; text-rendering:geometricPrecision; image-rendering:optimizeQuality; fill-rule:evenodd; clip-rule:evenodd"
viewBox="0 0 8670 4437"
 xmlns:xlink="http://www.w3.org/1999/xlink">
 <defs>
  <style type="text/css">
   <![CDATA[
    .fil0 {fill:#3C8DBC}
    .fil1 {fill:#3C8DBC;fill-rule:nonzero}
   ]]>
  </style>
 </defs>
 <g id="Layer_x0020_1">
  <metadata id="CorelCorpID_0Corel-Layer"/>
  <g id="_1103810928">
   <path class="fil0" d="M4335 2c686,0 1243,556 1243,1242 0,687 -557,1243 -1243,1243 -37,0 -74,-2 -110,-5l0 -234 0 -109 0 -309 0 -16 0 -195c-162,-47 -281,-197 -281,-375 0,-216 175,-391 391,-391 216,0 391,175 391,391 0,178 -119,328 -281,375l0 211 0 309 0 109c506,-54 900,-483 900,-1004 0,-558 -452,-1010 -1010,-1010 -558,0 -1010,452 -1010,1010 0,443 285,819 681,955l0 244c-527,-144 -914,-626 -914,-1199 0,-686 557,-1242 1243,-1242zm379 1399l0 0c4,-11 17,-16 29,-12l113 47c11,5 16,18 12,29l0 0c-5,11 -18,16 -29,12l-113 -47c-12,-5 -17,-18 -12,-29zm-912 -377l0 0c5,-12 18,-17 29,-12l113 47c11,4 17,17 12,28l0 0c-4,12 -17,17 -29,12l-113 -47c-11,-4 -16,-17 -12,-28zm154 377l0 0c5,11 -1,24 -12,29l-113 47c-11,4 -24,-1 -29,-12l0 0c-4,-11 1,-24 12,-29l113 -47c12,-4 25,1 29,12zm912 -377l0 0c4,11 -1,24 -12,28l-113 47c-12,5 -25,0 -29,-12l0 0c-5,-11 0,-24 12,-28l113 -47c11,-5 24,0 29,12zm-243 510l0 0c8,-8 22,-8 31,0l87 87c8,8 8,22 0,31l0 0c-9,8 -23,8 -32,0l-86 -87c-9,-8 -9,-22 0,-31zm-698 -697l0 0c9,-9 23,-9 32,0l86 86c9,9 9,23 0,31l0 0c-9,9 -23,9 -31,0l-87 -86c-8,-9 -8,-23 0,-31zm118 697l0 0c9,9 9,23 0,31l-86 87c-9,8 -23,8 -32,0l0 0c-8,-9 -8,-23 0,-31l87 -87c8,-8 22,-8 31,0zm698 -697l0 0c8,8 8,22 0,31l-87 86c-9,9 -23,9 -31,0l0 0c-9,-8 -9,-22 0,-31l86 -86c9,-9 23,-9 32,0zm-629 -125l0 0c12,-5 25,0 29,12l47 113c5,11 -1,24 -12,28l0 0c-11,5 -24,0 -29,-11l-47 -114c-4,-11 1,-24 12,-28zm442 0l0 0c11,4 16,17 12,28l-47 114c-5,11 -18,16 -29,11l0 0c-11,-4 -17,-17 -12,-28l47 -113c4,-12 17,-17 29,-12zm-798 532l0 0c0,-12 10,-22 23,-22l122 0c12,0 22,10 22,22l0 0c0,12 -10,22 -22,22l-122 0c-13,0 -23,-10 -23,-22zm577 -576l0 0c12,0 22,10 22,22l0 122c0,12 -10,22 -22,22l0 0c-12,0 -22,-10 -22,-22l0 -122c0,-12 10,-22 22,-22zm410 576l0 0c0,-12 10,-22 22,-22l122 0c13,0 22,10 22,22l0 0c0,12 -9,22 -22,22l-122 0c-12,0 -22,-10 -22,-22zm-410 -192c-106,0 -192,86 -192,192 0,107 86,193 192,193 106,0 192,-86 192,-193 0,-106 -86,-192 -192,-192zm0 -616c447,0 809,362 809,808 0,298 -161,558 -400,698l0 -264c115,-108 187,-263 187,-434 0,-329 -267,-596 -596,-596 -329,0 -596,267 -596,596 0,171 72,326 187,434l0 264c-239,-140 -400,-400 -400,-698 0,-446 362,-808 809,-808z"/>
   <g>
    <path class="fil1" d="M8654 3501l-116 117c-47,-47 -90,-70 -128,-70 -21,0 -37,4 -49,13 -12,9 -18,20 -18,33 0,10 3,19 11,28 8,8 26,20 56,34l69 35c72,35 122,72 149,108 27,38 40,81 40,130 0,67 -24,122 -73,166 -49,45 -114,67 -197,67 -109,0 -196,-43 -261,-128l116 -126c22,26 48,47 78,62 29,16 55,24 78,24 25,0 45,-6 60,-18 16,-12 23,-25 23,-41 0,-29 -27,-57 -82,-84l-63 -32c-121,-61 -182,-137 -182,-228 0,-59 23,-109 69,-151 45,-42 103,-63 174,-63 49,0 94,11 137,32 43,22 79,52 109,92z"/>
    <polygon class="fil1" points="7839,3395 8026,3395 8026,4143 7839,4143 "/>
    <path class="fil1" d="M7933 3088c33,0 61,12 85,36 23,24 35,52 35,86 0,33 -12,62 -35,85 -23,24 -51,36 -84,36 -33,0 -61,-12 -85,-36 -24,-24 -35,-53 -35,-88 0,-33 11,-60 35,-84 23,-23 51,-35 84,-35z"/>
    <polygon class="fil1" points="6967,3395 7159,3395 7347,3837 7537,3395 7727,3395 7405,4143 7286,4143 "/>
    <path class="fil1" d="M6499 3553c-58,0 -107,20 -146,61 -38,40 -58,92 -58,155 0,65 19,118 58,158 38,40 87,60 145,60 59,0 108,-20 147,-61 39,-41 59,-93 59,-157 0,-64 -20,-116 -58,-156 -38,-40 -87,-60 -147,-60zm-3 -176c71,0 137,18 200,53 62,35 110,83 145,143 35,61 53,126 53,196 0,70 -18,136 -53,197 -35,61 -83,109 -143,144 -61,34 -128,52 -201,52 -107,0 -199,-38 -275,-114 -76,-77 -114,-169 -114,-278 0,-117 43,-214 129,-292 75,-67 161,-101 259,-101z"/>
    <path class="fil1" d="M5309 3395l188 0 0 77c42,-35 81,-60 115,-74 35,-14 70,-21 106,-21 75,0 138,26 189,78 44,44 66,109 66,195l0 493 -186 0 0 -327c0,-89 -4,-148 -12,-177 -8,-30 -22,-52 -42,-67 -20,-15 -45,-23 -74,-23 -38,0 -70,13 -98,38 -27,25 -46,61 -56,105 -6,24 -8,74 -8,152l0 299 -188 0 0 -748z"/>
    <polygon class="fil1" points="4515,3119 4703,3119 4703,3395 4814,3395 4814,3557 4703,3557 4703,4143 4515,4143 4515,3557 4420,3557 4420,3395 4515,3395 "/>
    <path class="fil1" d="M4300 3548l-156 85c-30,-30 -58,-51 -87,-63 -29,-12 -62,-18 -101,-18 -70,0 -127,21 -170,62 -43,42 -65,95 -65,161 0,63 21,115 62,155 42,40 97,60 165,60 84,0 149,-29 196,-86l147 101c-80,105 -193,157 -339,157 -132,0 -235,-39 -309,-117 -75,-78 -112,-169 -112,-273 0,-72 18,-139 54,-199 36,-61 87,-109 152,-144 65,-35 137,-52 218,-52 74,0 141,15 200,44 59,30 107,72 145,127z"/>
    <path class="fil1" d="M3212 3676c-13,-41 -37,-74 -73,-100 -37,-26 -79,-38 -128,-38 -52,0 -98,14 -137,43 -25,18 -48,49 -69,95l407 0zm187 146l-603 0c9,53 32,96 70,128 37,31 86,47 144,47 70,0 130,-25 180,-74l157 74c-39,56 -86,97 -141,124 -55,27 -120,41 -195,41 -117,0 -213,-37 -286,-111 -73,-74 -110,-166 -110,-277 0,-114 37,-209 110,-284 73,-75 166,-113 277,-113 117,0 213,38 287,113 73,75 110,173 110,297l0 35z"/>
    <path class="fil1" d="M2278 3395l188 0 0 772c0,71 -7,124 -21,159 -14,35 -36,62 -67,81 -30,19 -66,28 -109,28 -37,0 -84,-9 -140,-28l0 -148c29,14 55,21 78,21 24,0 41,-7 53,-21 12,-14 18,-41 18,-79l0 -785z"/>
    <path class="fil1" d="M2372 3088c33,0 61,12 85,36 24,23 35,52 35,86 0,33 -11,61 -35,85 -23,24 -51,36 -83,36 -34,0 -62,-12 -86,-37 -23,-24 -35,-53 -35,-87 0,-33 11,-61 35,-84 23,-23 51,-35 84,-35z"/>
    <path class="fil1" d="M1737 3553c-59,0 -107,20 -146,61 -39,40 -58,92 -58,155 0,65 19,118 57,158 39,40 87,60 146,60 59,0 108,-20 147,-61 39,-41 58,-93 58,-157 0,-64 -19,-116 -57,-156 -38,-40 -88,-60 -147,-60zm-3 -176c71,0 137,18 199,53 63,35 111,83 146,143 35,61 53,126 53,196 0,70 -18,136 -53,197 -35,61 -83,109 -144,144 -61,34 -127,52 -200,52 -108,0 -200,-38 -275,-114 -76,-77 -114,-169 -114,-278 0,-117 42,-214 128,-292 76,-67 162,-101 260,-101z"/>
    <path class="fil1" d="M919 3395l162 0 0 95c17,-37 40,-65 69,-84 28,-19 60,-29 94,-29 24,0 50,6 76,19l-58 162c-22,-11 -40,-16 -54,-16 -29,0 -53,18 -73,53 -20,36 -30,106 -30,210l1 37 0 301 -187 0 0 -748z"/>
    <path class="fil1" d="M386 3549c-59,0 -108,20 -147,60 -39,41 -58,93 -58,158 0,67 19,120 58,161 39,41 88,62 147,62 57,0 105,-21 144,-63 40,-41 59,-94 59,-159 0,-64 -19,-117 -58,-158 -38,-41 -86,-61 -145,-61zm-197 -154l0 83c34,-34 71,-59 110,-76 39,-16 82,-25 127,-25 97,0 180,37 248,110 68,74 102,169 102,284 0,111 -35,204 -105,278 -71,75 -154,113 -251,113 -43,0 -83,-8 -120,-23 -37,-16 -74,-41 -111,-76l0 354 -187 0 0 -1022 187 0z"/>
   </g>
  </g>
 </g>
</svg>
