<?xml version="1.0" encoding="UTF-8"?>
<!DOCTYPE svg PUBLIC "-//W3C//DTD SVG 1.1//EN" "http://www.w3.org/Graphics/SVG/1.1/DTD/svg11.dtd">
<!-- Creator: CorelDRAW X7 -->
<svg xmlns="http://www.w3.org/2000/svg" xml:space="preserve" width="21.6746mm" height="4.572mm" version="1.1" style="shape-rendering:geometricPrecision; text-rendering:geometricPrecision; image-rendering:optimizeQuality; fill-rule:evenodd; clip-rule:evenodd"
viewBox="0 0 2167 457"
 xmlns:xlink="http://www.w3.org/1999/xlink">
 <defs>
  <style type="text/css">
   <![CDATA[
    .fil0 {fill:#FEFEFE}
    .fil1 {fill:#FEFEFE;fill-rule:nonzero}
   ]]>
  </style>
 </defs>
 <g id="Layer_x0020_1">
  <metadata id="CorelCorpID_0Corel-Layer"/>
  <g id="_1146854752">
   <path class="fil0" d="M225 1c126,0 228,102 228,228 0,125 -102,227 -228,227 -6,0 -13,0 -20,-1l0 -43 0 -20 0 -56 0 -3 0 -36c-29,-8 -51,-36 -51,-68 0,-40 32,-72 71,-72 40,0 72,32 72,72 0,32 -22,60 -52,68l0 39 0 56 0 20c93,-10 165,-88 165,-183 0,-102 -83,-185 -185,-185 -102,0 -184,83 -184,185 0,81 52,149 124,174l0 45c-96,-27 -167,-115 -167,-219 0,-126 102,-228 227,-228zm70 256l0 0c0,-2 3,-3 5,-2l21 9c2,1 3,3 2,5l0 0c-1,2 -3,3 -6,2l-20 -8c-2,-1 -3,-4 -2,-6zm-167 -69l0 0c1,-2 3,-3 5,-2l21 9c2,0 3,3 2,5l0 0c-1,2 -3,3 -5,2l-21 -8c-2,-1 -3,-4 -2,-6zm28 69l0 0c1,2 0,5 -2,6l-21 8c-2,1 -4,0 -5,-2l0 0c-1,-2 0,-4 2,-5l21 -9c2,-1 4,0 5,2zm167 -69l0 0c1,2 0,5 -2,6l-21 8c-2,1 -5,0 -5,-2l0 0c-1,-2 0,-5 2,-5l20 -9c3,-1 5,0 6,2zm-45 94l0 0c2,-2 4,-2 6,0l16 15c1,2 1,5 0,6l0 0c-2,2 -4,2 -6,0l-16 -16c-1,-1 -1,-4 0,-5zm-127 -128l0 0c1,-2 4,-2 5,0l16 16c2,1 2,4 0,6l0 0c-1,1 -4,1 -5,0l-16 -16c-2,-2 -2,-4 0,-6zm21 128l0 0c2,1 2,4 0,5l-16 16c-1,2 -4,2 -5,0l0 0c-2,-1 -2,-4 0,-6l16 -15c1,-2 4,-2 5,0zm128 -128l0 0c1,2 1,4 0,6l-16 16c-2,1 -4,1 -6,0l0 0c-1,-2 -1,-5 0,-6l16 -16c2,-2 4,-2 6,0zm-115 -23l0 0c2,-1 4,0 5,2l9 21c1,2 0,4 -2,5l0 0c-2,1 -5,0 -6,-2l-8 -21c-1,-2 0,-4 2,-5zm81 0l0 0c2,1 3,3 2,5l-9 21c-1,2 -3,3 -5,2l0 0c-2,-1 -3,-3 -2,-5l8 -21c1,-2 4,-3 6,-2zm-146 98l0 0c0,-3 2,-4 4,-4l22 0c3,0 4,1 4,4l0 0c0,2 -1,4 -4,4l-22 0c-2,0 -4,-2 -4,-4zm105 -106l0 0c3,0 4,2 4,4l0 23c0,2 -1,4 -4,4l0 0c-2,0 -4,-2 -4,-4l0 -23c0,-2 2,-4 4,-4zm75 106l0 0c0,-3 2,-4 4,-4l23 0c2,0 4,1 4,4l0 0c0,2 -2,4 -4,4l-23 0c-2,0 -4,-2 -4,-4zm-75 -36c-19,0 -35,16 -35,36 0,19 16,35 35,35 20,0 36,-16 36,-35 0,-20 -16,-36 -36,-36zm0 -112c82,0 148,66 148,148 0,54 -29,102 -73,127l0 -48c21,-20 34,-48 34,-79 0,-61 -48,-109 -109,-109 -60,0 -109,48 -109,109 0,31 13,59 35,79l0 48c-44,-25 -74,-73 -74,-127 0,-82 67,-148 148,-148z"/>
   <path class="fil1" d="M2167 180l-21 22c-9,-9 -17,-13 -24,-13 -4,0 -7,1 -9,2 -2,2 -3,4 -3,6 0,2 1,4 2,5 1,2 5,4 10,7l13 6c13,6 22,13 27,20 5,7 7,14 7,24 0,12 -4,22 -13,30 -9,8 -21,12 -36,12 -20,0 -36,-8 -48,-23l21 -23c4,4 9,8 15,11 5,3 10,4 14,4 5,0 8,-1 11,-3 3,-2 4,-5 4,-7 0,-6 -5,-11 -15,-16l-11 -6c-23,-11 -34,-25 -34,-41 0,-11 5,-20 13,-28 8,-8 19,-11 32,-11 9,0 17,2 25,5 8,4 14,10 20,17z"/>
   <polygon class="fil1" points="2018,161 2052,161 2052,298 2018,298 "/>
   <path class="fil1" d="M2035 105c6,0 11,2 15,6 5,5 7,10 7,16 0,6 -2,11 -7,16 -4,4 -9,6 -15,6 -6,0 -11,-2 -15,-7 -5,-4 -7,-9 -7,-15 0,-6 2,-12 7,-16 4,-4 9,-6 15,-6z"/>
   <polygon class="fil1" points="1858,161 1893,161 1928,242 1962,161 1997,161 1938,298 1917,298 "/>
   <path class="fil1" d="M1773 190c-11,0 -20,3 -27,11 -7,7 -11,17 -11,28 0,12 4,22 11,29 7,7 16,11 27,11 10,0 19,-4 26,-11 8,-7 11,-17 11,-29 0,-11 -3,-21 -10,-28 -7,-8 -16,-11 -27,-11zm-1 -32c13,0 25,3 37,9 11,7 20,15 26,26 7,11 10,23 10,36 0,13 -3,25 -10,36 -6,11 -15,20 -26,27 -11,6 -23,9 -37,9 -19,0 -36,-7 -50,-21 -14,-14 -21,-31 -21,-51 0,-21 8,-39 24,-53 14,-12 29,-18 47,-18z"/>
   <path class="fil1" d="M1555 161l34 0 0 14c8,-7 15,-11 22,-14 6,-2 12,-3 19,-3 14,0 25,4 35,14 7,8 11,20 11,35l0 91 -34 0 0 -60c0,-16 0,-27 -2,-33 -1,-5 -4,-9 -7,-12 -4,-3 -9,-4 -14,-4 -7,0 -13,2 -18,7 -5,5 -8,11 -10,19 -1,4 -2,14 -2,28l0 55 -34 0 0 -137z"/>
   <polygon class="fil1" points="1410,110 1444,110 1444,161 1465,161 1465,191 1444,191 1444,298 1410,298 1410,191 1392,191 1392,161 1410,161 "/>
   <path class="fil1" d="M1371 189l-29 15c-5,-5 -11,-9 -16,-11 -5,-2 -11,-3 -18,-3 -13,0 -24,3 -31,11 -8,8 -12,17 -12,29 0,12 4,21 11,29 8,7 18,11 30,11 15,0 27,-6 36,-16l27 18c-15,20 -35,29 -62,29 -24,0 -43,-7 -57,-21 -13,-15 -20,-31 -20,-50 0,-13 3,-26 10,-37 6,-11 16,-20 28,-26 11,-6 25,-9 39,-9 14,0 26,2 37,8 11,5 20,13 27,23z"/>
   <path class="fil1" d="M1172 212c-3,-7 -7,-13 -14,-18 -6,-5 -14,-7 -23,-7 -10,0 -18,3 -25,8 -5,3 -9,9 -13,17l75 0zm34 27l-110 0c1,10 5,17 12,23 7,6 16,9 27,9 12,0 23,-5 33,-14l28 14c-7,10 -15,18 -25,23 -11,5 -22,7 -36,7 -22,0 -39,-7 -52,-20 -14,-14 -21,-31 -21,-51 0,-21 7,-38 21,-52 13,-14 30,-20 50,-20 22,0 39,6 53,20 13,14 20,32 20,54l0 7z"/>
   <path class="fil1" d="M1001 161l34 0 0 141c0,13 -1,23 -4,29 -2,7 -6,11 -12,15 -5,3 -12,5 -20,5 -7,0 -15,-2 -25,-5l0 -27c5,2 10,4 14,4 4,0 7,-2 10,-4 2,-3 3,-8 3,-15l0 -143z"/>
   <path class="fil1" d="M1018 105c6,0 11,2 16,6 4,5 6,10 6,16 0,6 -2,11 -6,16 -5,4 -10,6 -16,6 -6,0 -11,-2 -15,-7 -5,-4 -7,-9 -7,-16 0,-6 2,-11 7,-15 4,-4 9,-6 15,-6z"/>
   <path class="fil1" d="M902 190c-11,0 -20,3 -27,11 -7,7 -10,17 -10,28 0,12 3,22 10,29 7,7 16,11 27,11 10,0 19,-4 27,-11 7,-7 10,-17 10,-29 0,-11 -3,-21 -10,-28 -7,-8 -16,-11 -27,-11zm-1 -32c13,0 25,3 37,9 11,7 20,15 26,26 7,11 10,23 10,36 0,13 -3,25 -10,36 -6,11 -15,20 -26,27 -11,6 -23,9 -37,9 -19,0 -36,-7 -50,-21 -14,-14 -21,-31 -21,-51 0,-21 8,-39 24,-53 14,-12 29,-18 47,-18z"/>
   <path class="fil1" d="M752 161l30 0 0 17c3,-6 7,-12 12,-15 6,-4 12,-5 18,-5 4,0 9,1 14,3l-11 30c-4,-2 -7,-3 -10,-3 -5,0 -10,3 -13,9 -4,7 -6,20 -6,39l0 7 0 55 -34 0 0 -137z"/>
   <path class="fil1" d="M655 189c-11,0 -20,4 -27,11 -7,7 -11,17 -11,29 0,12 4,22 11,29 7,8 16,12 27,12 10,0 19,-4 26,-12 7,-7 11,-17 11,-29 0,-12 -4,-21 -11,-29 -7,-7 -15,-11 -26,-11zm-36 -28l0 15c6,-6 13,-11 20,-14 7,-3 15,-4 23,-4 18,0 33,6 46,20 12,13 18,30 18,52 0,20 -6,37 -19,51 -13,13 -28,20 -46,20 -8,0 -15,-1 -22,-4 -7,-3 -13,-8 -20,-14l0 65 -34 0 0 -187 34 0z"/>
  </g>
 </g>
</svg>
